<svg xmlns="http://www.w3.org/2000/svg" viewBox="0 0 512 512">
  <defs>
    <clipPath id="hub-donut-clip">
      <path d="M 256, 256 m -75, 0 a 75,75 0 1,0 150,0 a 75,75 0 1,0 -150,0 z
               M 256, 256 m -45, 0 a 45,45 0 1,1 90,0 a 45,45 0 1,1 -90,0 z"
            fill-rule="evenodd" />
    </clipPath>
  </defs>

  <rect width="512" height="512" rx="128" fill="#3B82F6" />
  
  <g fill="#FFFFFF" opacity="0.25" stroke="none">
    <path d="M 260 60 
             L 300 65  C 320 70, 330 80, 340 90 
             C 365 100, 385 110, 380 140 L 375 180 L 365 240 
             L 350 320 L 340 380 
             L 365 440 L 320 410 Q 300 390, 280 410 L 245 450 L 225 380 L 200 360 L 150 340 L 170 300 L 140 280 L 100 250 L 110 210 L 140 160 L 180 120 
             L 210 90  Z" />
             
    <circle cx="90" cy="180" r="8" opacity="0.8" /> <circle cx="360" cy="460" r="10" opacity="0.8" /> <circle cx="295" cy="415" r="5" opacity="0.6" /> </g>

  <circle cx="256" cy="256" r="215" stroke="#FFFFFF" stroke-width="12" opacity="0.15" fill="none"/>
  <circle cx="256" cy="256" r="225" stroke="#FFFFFF" stroke-width="5" opacity="0.2" fill="none"/>

  <circle cx="256" cy="256" r="75" fill="#FFFFFF" />

  <g fill="#FFFFFF">
    <path d="M 236 50 A 20 20 0 0 1 276 50 Q 296 150 256 256 Q 216 150 236 50 Z" />
    <path d="M 276 462 A 20 20 0 0 1 236 462 Q 216 362 256 256 Q 296 362 276 462 Z" />
  </g>

  <g clip-path="url(#hub-donut-clip)" fill="none" stroke="#3B82F6" stroke-width="4">
    <path d="M 236 50 A 20 20 0 0 1 276 50 Q 296 150 256 256 Q 216 150 236 50 Z" />
    <path d="M 276 462 A 20 20 0 0 1 236 462 Q 216 362 256 256 Q 296 362 276 462 Z" />
  </g>

  <g fill="#3B82F6" stroke="#FFFFFF" stroke-width="4" font-family="Arial, sans-serif" font-weight="900" text-anchor="middle" stroke-linejoin="round">
    <text x="256" y="170" font-size="85">K</text>
    <text x="256" y="395" font-size="85">A</text>
  </g>
  
  <g>
    <text x="256" y="288" fill="#3B82F6" stroke="none" font-family="Arial, sans-serif" font-weight="900" text-anchor="middle" font-size="95">B</text>
  </g>
</svg>