<svg xmlns="http://www.w3.org/2000/svg" viewBox="0 0 512 512">
  <defs>
    <clipPath id="hub-donut-clip">
      <path d="M 256, 256 m -75, 0 a 75,75 0 1,0 150,0 a 75,75 0 1,0 -150,0 z
               M 256, 256 m -45, 0 a 45,45 0 1,1 90,0 a 45,45 0 1,1 -90,0 z"
            fill-rule="evenodd" />
    </clipPath>
  </defs>

  <rect width="512" height="512" rx="128" fill="#3B82F6" />
  
  <circle cx="256" cy="256" r="210" stroke="#FFFFFF" stroke-width="24" opacity="0.15" fill="none"/>
  <circle cx="256" cy="256" r="225" stroke="#FFFFFF" stroke-width="2" opacity="0.3" fill="none"/>

  <g transform="translate(256 256)">
    <g fill="#FFFFFF" opacity="0.4">
      <rect x="-10" y="-130" width="20" height="40" rx="4" />
      <rect x="-10" y="-130" width="20" height="40" rx="4" transform="rotate(40)"/>
      <rect x="-10" y="-130" width="20" height="40" rx="4" transform="rotate(80)"/>
      <rect x="-10" y="-130" width="20" height="40" rx="4" transform="rotate(120)"/>
      <rect x="-10" y="-130" width="20" height="40" rx="4" transform="rotate(160)"/>
      <rect x="-10" y="-130" width="20" height="40" rx="4" transform="rotate(200)"/>
      <rect x="-10" y="-130" width="20" height="40" rx="4" transform="rotate(240)"/>
      <rect x="-10" y="-130" width="20" height="40" rx="4" transform="rotate(280)"/>
      <rect x="-10" y="-130" width="20" height="40" rx="4" transform="rotate(320)"/>
    </g>
    <circle r="90" fill="none" stroke="#FFFFFF" stroke-width="3" opacity="0.3" stroke-dasharray="10 5"/>
  </g>

  <circle cx="256" cy="256" r="75" fill="#FFFFFF" />

  <g fill="#FFFFFF">
    <path d="M 236 50 A 20 20 0 0 1 276 50 Q 296 150 256 256 Q 216 150 236 50 Z" />
    <path d="M 276 462 A 20 20 0 0 1 236 462 Q 216 362 256 256 Q 296 362 276 462 Z" />
  </g>

  <g clip-path="url(#hub-donut-clip)" fill="none" stroke="#3B82F6" stroke-width="2">
    <path d="M 236 50 A 20 20 0 0 1 276 50 Q 296 150 256 256 Q 216 150 236 50 Z" />
    <path d="M 276 462 A 20 20 0 0 1 236 462 Q 216 362 256 256 Q 296 362 276 462 Z" />
  </g>

  <g fill="#3B82F6" stroke="#FFFFFF" stroke-width="3" font-family="Arial, sans-serif" font-weight="900" text-anchor="middle" stroke-linejoin="round">
    <text x="256" y="165" font-size="80">K</text>
    <text x="256" y="390" font-size="80">A</text>
  </g>
  
  <g>
    <circle cx="256" cy="256" r="68" fill="none" stroke="#3B82F6" stroke-width="2" stroke-dasharray="0 15" stroke-linecap="round" opacity="0.5"/>
    <text x="256" y="285" fill="#3B82F6" stroke="none" font-family="Arial, sans-serif" font-weight="900" text-anchor="middle" font-size="90">B</text>
  </g>
</svg>